<?xml version="1.0" encoding="utf-8"?>
<!-- Generator: Adobe Illustrator 18.1.1, SVG Export Plug-In . SVG Version: 6.00 Build 0)  -->
<svg version="1.1" id="Layer_1" xmlns="http://www.w3.org/2000/svg" xmlns:xlink="http://www.w3.org/1999/xlink" x="0px" y="0px"
	 viewBox="0 0 342.5 82.9" enable-background="new 0 0 342.5 82.9" xml:space="preserve">
<linearGradient id="SVGID_1_" gradientUnits="userSpaceOnUse" x1="28.0587" y1="19.4755" x2="28.7386" y2="5.878378e-03">
	<stop  offset="0" style="stop-color:#000000;stop-opacity:0.91"/>
	<stop  offset="0.1845" style="stop-color:#434244;stop-opacity:0.9266"/>
	<stop  offset="0.5832" style="stop-color:#7E7F82;stop-opacity:0.9625"/>
	<stop  offset="1" style="stop-color:#BCBEC0"/>
</linearGradient>
<path fill="url(#SVGID_1_)" d="M18.7,9.7c0,5.4,4.3,9.7,9.7,9.7c5.3,0,9.6-4.4,9.6-9.7C38,4.4,33.7,0,28.4,0
	C23.1,0,18.7,4.4,18.7,9.7z"/>
<linearGradient id="SVGID_2_" gradientUnits="userSpaceOnUse" x1="37.7978" y1="66.2482" x2="39.2926" y2="23.4433">
	<stop  offset="0" style="stop-color:#000000;stop-opacity:0.91"/>
	<stop  offset="0.1845" style="stop-color:#434244;stop-opacity:0.9266"/>
	<stop  offset="0.5832" style="stop-color:#7E7F82;stop-opacity:0.9625"/>
	<stop  offset="1" style="stop-color:#BCBEC0"/>
</linearGradient>
<polygon fill="url(#SVGID_2_)" points="26.1,28.9 42.3,23.5 50.9,64.2 43.3,66.4 "/>
<linearGradient id="SVGID_3_" gradientUnits="userSpaceOnUse" x1="78.0871" y1="19.4756" x2="78.767" y2="5.958673e-03">
	<stop  offset="0" style="stop-color:#000000;stop-opacity:0.91"/>
	<stop  offset="0.1845" style="stop-color:#434244;stop-opacity:0.9266"/>
	<stop  offset="0.5832" style="stop-color:#7E7F82;stop-opacity:0.9625"/>
	<stop  offset="1" style="stop-color:#BCBEC0"/>
</linearGradient>
<ellipse fill="url(#SVGID_3_)" cx="78.4" cy="9.7" rx="9.6" ry="9.7"/>
<linearGradient id="SVGID_4_" gradientUnits="userSpaceOnUse" x1="67.6414" y1="66.5872" x2="69.1388" y2="23.7076">
	<stop  offset="0" style="stop-color:#000000;stop-opacity:0.91"/>
	<stop  offset="0.1845" style="stop-color:#434244;stop-opacity:0.9266"/>
	<stop  offset="0.5832" style="stop-color:#7E7F82;stop-opacity:0.9625"/>
	<stop  offset="1" style="stop-color:#BCBEC0"/>
</linearGradient>
<polygon fill="url(#SVGID_4_)" points="80.8,28.9 64.6,23.5 55.9,64.2 63.5,66.4 "/>
<linearGradient id="SVGID_5_" gradientUnits="userSpaceOnUse" x1="5.0354" y1="62.1917" x2="5.401" y2="51.7208">
	<stop  offset="0" style="stop-color:#000000;stop-opacity:0.91"/>
	<stop  offset="0.1845" style="stop-color:#434244;stop-opacity:0.9266"/>
	<stop  offset="0.5832" style="stop-color:#7E7F82;stop-opacity:0.9625"/>
	<stop  offset="1" style="stop-color:#BCBEC0"/>
</linearGradient>
<path fill="url(#SVGID_5_)" d="M0.8,59.7c1.5,2.5,4.7,3.3,7.2,1.7c2.4-1.5,3.2-4.7,1.7-7.2c-1.5-2.5-4.7-3.3-7.2-1.7
	C0,54-0.7,57.2,0.8,59.7z"/>
<linearGradient id="SVGID_6_" gradientUnits="userSpaceOnUse" x1="20.005" y1="78.9437" x2="20.666" y2="60.0141">
	<stop  offset="0" style="stop-color:#000000;stop-opacity:0.91"/>
	<stop  offset="0.1845" style="stop-color:#434244;stop-opacity:0.9266"/>
	<stop  offset="0.5832" style="stop-color:#7E7F82;stop-opacity:0.9625"/>
	<stop  offset="1" style="stop-color:#BCBEC0"/>
</linearGradient>
<polygon fill="url(#SVGID_6_)" points="9.6,66.9 15.5,59.8 31,76.1 28.1,79.2 "/>
<linearGradient id="SVGID_7_" gradientUnits="userSpaceOnUse" x1="101.9178" y1="62.195" x2="102.2836" y2="51.7173">
	<stop  offset="0" style="stop-color:#000000;stop-opacity:0.91"/>
	<stop  offset="0.1845" style="stop-color:#434244;stop-opacity:0.9266"/>
	<stop  offset="0.5832" style="stop-color:#7E7F82;stop-opacity:0.9625"/>
	<stop  offset="1" style="stop-color:#BCBEC0"/>
</linearGradient>
<path fill="url(#SVGID_7_)" d="M106.5,59.7c-1.5,2.5-4.7,3.3-7.2,1.7c-2.4-1.5-3.2-4.7-1.7-7.2c1.5-2.5,4.7-3.3,7.2-1.7
	C107.3,54,108.1,57.2,106.5,59.7z"/>
<linearGradient id="SVGID_8_" gradientUnits="userSpaceOnUse" x1="86.773" y1="79.4916" x2="87.4648" y2="59.6813">
	<stop  offset="0" style="stop-color:#000000;stop-opacity:0.91"/>
	<stop  offset="0.1845" style="stop-color:#434244;stop-opacity:0.9266"/>
	<stop  offset="0.5832" style="stop-color:#7E7F82;stop-opacity:0.9625"/>
	<stop  offset="1" style="stop-color:#BCBEC0"/>
</linearGradient>
<polygon fill="url(#SVGID_8_)" points="97.8,66.9 91.8,59.8 76.4,76.1 79.2,79.2 "/>
<rect x="114.4" y="6.5" fill="none" width="228.1" height="41.9"/>
<text transform="matrix(1 0 0 1 114.3841 44.5347)" fill="#58595B" font-family="'MyanmarMN'" font-size="48">ELLEFSEN</text>
<rect x="118.4" y="49.4" fill="none" width="218.5" height="21.1"/>
<text transform="matrix(1 0 0 1 118.5935 68.4165)" fill="#58595B" font-family="'MyanmarMN'" font-size="24" letter-spacing="3">PRIMARY CARE</text>
<line fill="#58595B" stroke="#58595B" stroke-miterlimit="10" x1="118.4" y1="48.4" x2="337.5" y2="48.4"/>
<linearGradient id="SVGID_9_" gradientUnits="userSpaceOnUse" x1="10.9938" y1="43.0353" x2="11.4804" y2="29.101">
	<stop  offset="0" style="stop-color:#414042;stop-opacity:0.64"/>
	<stop  offset="1.698458e-02" style="stop-color:#484A49;stop-opacity:0.6461"/>
	<stop  offset="9.115726e-02" style="stop-color:#636C5D;stop-opacity:0.6728"/>
	<stop  offset="0.1708" style="stop-color:#738362;stop-opacity:0.7015"/>
	<stop  offset="0.2541" style="stop-color:#7E9661;stop-opacity:0.7315"/>
	<stop  offset="0.342" style="stop-color:#85A65B;stop-opacity:0.7631"/>
	<stop  offset="0.4357" style="stop-color:#89B251;stop-opacity:0.7969"/>
	<stop  offset="0.5374" style="stop-color:#8BBA48;stop-opacity:0.8335"/>
	<stop  offset="0.6512" style="stop-color:#8CC042;stop-opacity:0.8744"/>
	<stop  offset="0.7866" style="stop-color:#8CC43F;stop-opacity:0.9232"/>
	<stop  offset="1" style="stop-color:#8DC63F"/>
</linearGradient>
<path fill="url(#SVGID_9_)" d="M4.7,38.2c1.2,3.7,5.1,5.7,8.7,4.5c3.6-1.2,5.6-5.1,4.4-8.8c-1.2-3.7-5.1-5.7-8.7-4.5
	C5.4,30.6,3.5,34.6,4.7,38.2z"/>
<linearGradient id="SVGID_10_" gradientUnits="userSpaceOnUse" x1="25.9233" y1="71.2762" x2="26.9203" y2="42.7248">
	<stop  offset="0" style="stop-color:#414042;stop-opacity:0.64"/>
	<stop  offset="1.698458e-02" style="stop-color:#484A49;stop-opacity:0.6461"/>
	<stop  offset="9.115726e-02" style="stop-color:#636C5D;stop-opacity:0.6728"/>
	<stop  offset="0.1708" style="stop-color:#738362;stop-opacity:0.7015"/>
	<stop  offset="0.2541" style="stop-color:#7E9661;stop-opacity:0.7315"/>
	<stop  offset="0.342" style="stop-color:#85A65B;stop-opacity:0.7631"/>
	<stop  offset="0.4357" style="stop-color:#89B251;stop-opacity:0.7969"/>
	<stop  offset="0.5374" style="stop-color:#8BBA48;stop-opacity:0.8335"/>
	<stop  offset="0.6512" style="stop-color:#8CC042;stop-opacity:0.8744"/>
	<stop  offset="0.7866" style="stop-color:#8CC43F;stop-opacity:0.9232"/>
	<stop  offset="1" style="stop-color:#8DC63F"/>
</linearGradient>
<polygon fill="url(#SVGID_10_)" points="13.9,49.9 23.8,42.6 38.8,68.4 34.1,71.6 "/>
<linearGradient id="SVGID_11_" gradientUnits="userSpaceOnUse" x1="7.5862" y1="15.2457" x2="11.7716" y2="8.7213" gradientTransform="matrix(-0.8223 -0.569 -0.569 0.8223 67.2238 15.6641)">
	<stop  offset="0" style="stop-color:#414042;stop-opacity:0.64"/>
	<stop  offset="1.698458e-02" style="stop-color:#484A49;stop-opacity:0.6461"/>
	<stop  offset="9.115726e-02" style="stop-color:#636C5D;stop-opacity:0.6728"/>
	<stop  offset="0.1708" style="stop-color:#738362;stop-opacity:0.7015"/>
	<stop  offset="0.2541" style="stop-color:#7E9661;stop-opacity:0.7315"/>
	<stop  offset="0.342" style="stop-color:#85A65B;stop-opacity:0.7631"/>
	<stop  offset="0.4357" style="stop-color:#89B251;stop-opacity:0.7969"/>
	<stop  offset="0.5374" style="stop-color:#8BBA48;stop-opacity:0.8335"/>
	<stop  offset="0.6512" style="stop-color:#8CC042;stop-opacity:0.8744"/>
	<stop  offset="0.7866" style="stop-color:#8CC43F;stop-opacity:0.9232"/>
	<stop  offset="1" style="stop-color:#8DC63F"/>
</linearGradient>
<path fill="url(#SVGID_11_)" d="M48.8,18.9c-0.6,2.1,0.5,4.2,2.6,4.8c2,0.6,4.2-0.6,4.8-2.6c0.6-2.1-0.5-4.2-2.6-4.8
	C51.5,15.7,49.4,16.9,48.8,18.9z"/>
<linearGradient id="SVGID_12_" gradientUnits="userSpaceOnUse" x1="-3.4173" y1="31.3156" x2="5.569" y2="17.3075" gradientTransform="matrix(-0.8223 -0.569 -0.569 0.8223 67.2238 15.6641)">
	<stop  offset="0" style="stop-color:#414042;stop-opacity:0.64"/>
	<stop  offset="1.698458e-02" style="stop-color:#484A49;stop-opacity:0.6461"/>
	<stop  offset="9.115726e-02" style="stop-color:#636C5D;stop-opacity:0.6728"/>
	<stop  offset="0.1708" style="stop-color:#738362;stop-opacity:0.7015"/>
	<stop  offset="0.2541" style="stop-color:#7E9661;stop-opacity:0.7315"/>
	<stop  offset="0.342" style="stop-color:#85A65B;stop-opacity:0.7631"/>
	<stop  offset="0.4357" style="stop-color:#89B251;stop-opacity:0.7969"/>
	<stop  offset="0.5374" style="stop-color:#8BBA48;stop-opacity:0.8335"/>
	<stop  offset="0.6512" style="stop-color:#8CC042;stop-opacity:0.8744"/>
	<stop  offset="0.7866" style="stop-color:#8CC43F;stop-opacity:0.9232"/>
	<stop  offset="1" style="stop-color:#8DC63F"/>
</linearGradient>
<polygon fill="url(#SVGID_12_)" points="49.4,27.1 56.2,26.8 54.9,43.3 51.8,43.3 "/>
<linearGradient id="SVGID_13_" gradientUnits="userSpaceOnUse" x1="-50.1029" y1="43.0379" x2="-50.5897" y2="29.0986" gradientTransform="matrix(-1 0 0 1 46.2828 0)">
	<stop  offset="0" style="stop-color:#414042;stop-opacity:0.64"/>
	<stop  offset="1.698458e-02" style="stop-color:#484A49;stop-opacity:0.6461"/>
	<stop  offset="9.115726e-02" style="stop-color:#636C5D;stop-opacity:0.6728"/>
	<stop  offset="0.1708" style="stop-color:#738362;stop-opacity:0.7015"/>
	<stop  offset="0.2541" style="stop-color:#7E9661;stop-opacity:0.7315"/>
	<stop  offset="0.342" style="stop-color:#85A65B;stop-opacity:0.7631"/>
	<stop  offset="0.4357" style="stop-color:#89B251;stop-opacity:0.7969"/>
	<stop  offset="0.5374" style="stop-color:#8BBA48;stop-opacity:0.8335"/>
	<stop  offset="0.6512" style="stop-color:#8CC042;stop-opacity:0.8744"/>
	<stop  offset="0.7866" style="stop-color:#8CC43F;stop-opacity:0.9232"/>
	<stop  offset="1" style="stop-color:#8DC63F"/>
</linearGradient>
<path fill="url(#SVGID_13_)" d="M103.2,38.2c-1.2,3.7-5.1,5.7-8.8,4.5c-3.6-1.2-5.6-5.1-4.4-8.8c1.2-3.7,5.1-5.7,8.7-4.5
	C102.4,30.6,104.4,34.6,103.2,38.2z"/>
<linearGradient id="SVGID_14_" gradientUnits="userSpaceOnUse" x1="-34.7917" y1="71.8175" x2="-35.8139" y2="42.545" gradientTransform="matrix(-1 0 0 1 46.2828 0)">
	<stop  offset="0" style="stop-color:#414042;stop-opacity:0.64"/>
	<stop  offset="1.698458e-02" style="stop-color:#484A49;stop-opacity:0.6461"/>
	<stop  offset="9.115726e-02" style="stop-color:#636C5D;stop-opacity:0.6728"/>
	<stop  offset="0.1708" style="stop-color:#738362;stop-opacity:0.7015"/>
	<stop  offset="0.2541" style="stop-color:#7E9661;stop-opacity:0.7315"/>
	<stop  offset="0.342" style="stop-color:#85A65B;stop-opacity:0.7631"/>
	<stop  offset="0.4357" style="stop-color:#89B251;stop-opacity:0.7969"/>
	<stop  offset="0.5374" style="stop-color:#8BBA48;stop-opacity:0.8335"/>
	<stop  offset="0.6512" style="stop-color:#8CC042;stop-opacity:0.8744"/>
	<stop  offset="0.7866" style="stop-color:#8CC43F;stop-opacity:0.9232"/>
	<stop  offset="1" style="stop-color:#8DC63F"/>
</linearGradient>
<polygon fill="url(#SVGID_14_)" points="93.9,49.9 84.1,42.6 69.1,68.4 73.8,71.6 "/>
</svg>
