<?xml version="1.0" encoding="utf-8"?>
<!-- Generator: Adobe Illustrator 18.1.1, SVG Export Plug-In . SVG Version: 6.00 Build 0)  -->
<svg version="1.1" id="Layer_1" xmlns="http://www.w3.org/2000/svg" xmlns:xlink="http://www.w3.org/1999/xlink" x="0px" y="0px"
	 viewBox="0 0 619.6 58.2" enable-background="new 0 0 619.6 58.2" xml:space="preserve">
<path fill="#FFFFFF" d="M112.3,15v1.8H97.3v10.1h10v1.8h-10v12.7h14.9v1.8H92.6V15H112.3z"/>
<path fill="#FFFFFF" d="M117.5,15h4.8v26.5h14.2v1.8h-19V15z"/>
<path fill="#FFFFFF" d="M140.5,15h4.8v26.5h14.2v1.8h-19V15z"/>
<path fill="#FFFFFF" d="M183.1,15v1.8h-14.9v10.1h10v1.8h-10v12.7h14.9v1.8h-19.7V15H183.1z"/>
<path fill="#FFFFFF" d="M207,15v1.8h-13.8v10.1h10v1.8h-10v14.5h-4.8V15H207z"/>
<path fill="#FFFFFF" d="M218.5,42.1c0.7,0,1.4-0.1,2.1-0.3c0.7-0.2,1.3-0.5,1.8-0.9s1-0.8,1.3-1.4c0.3-0.5,0.5-1.2,0.5-1.9
	c0-0.9-0.2-1.6-0.7-2.3c-0.4-0.7-1-1.3-1.8-1.9c-0.7-0.6-1.6-1.1-2.5-1.6c-0.9-0.5-1.9-1-2.9-1.5c-1-0.5-1.9-1-2.9-1.6
	c-0.9-0.5-1.8-1.2-2.5-1.8c-0.7-0.7-1.3-1.4-1.8-2.3s-0.7-1.8-0.7-2.9c0-1.1,0.2-2.1,0.6-3s1-1.7,1.8-2.4s1.8-1.2,2.9-1.6
	s2.5-0.6,4-0.6c2.7,0,4.8,0.6,6.4,1.7s2.7,2.8,3.4,4.9l-2.4,1.1c-0.3-0.9-0.6-1.7-1.1-2.4s-1-1.3-1.6-1.8c-0.6-0.5-1.3-0.9-2.1-1.2
	s-1.7-0.4-2.7-0.4c-0.9,0-1.7,0.1-2.3,0.4s-1.2,0.6-1.7,1c-0.4,0.4-0.8,0.9-1,1.4c-0.2,0.5-0.3,1-0.3,1.6c0,0.7,0.2,1.4,0.7,2
	c0.5,0.6,1.1,1.2,1.8,1.8c0.7,0.6,1.6,1.1,2.6,1.6s1.9,1,2.9,1.6c1,0.5,2,1.1,2.9,1.6s1.8,1.2,2.6,1.9c0.7,0.7,1.3,1.4,1.8,2.2
	c0.5,0.8,0.7,1.7,0.7,2.7c0,1.1-0.2,2.2-0.6,3.2c-0.4,1-1.1,1.8-1.9,2.6c-0.9,0.7-1.9,1.3-3.2,1.7c-1.3,0.4-2.7,0.6-4.4,0.6
	c-1.4,0-2.6-0.1-3.6-0.4c-1.1-0.3-2-0.7-2.8-1.3c-0.8-0.6-1.5-1.3-2.1-2.1c-0.6-0.8-1.1-1.8-1.4-2.8l2.6-1.1
	c0.3,0.9,0.7,1.7,1.2,2.5c0.5,0.7,1.1,1.4,1.8,1.9c0.7,0.5,1.4,0.9,2.2,1.2C216.7,42,217.6,42.1,218.5,42.1z"/>
<path fill="#FFFFFF" d="M253.4,15v1.8h-14.9v10.1h10v1.8h-10v12.7h14.9v1.8h-19.7V15H253.4z"/>
<path fill="#FFFFFF" d="M258.6,15h2.7l18.6,20.7h0.2V15h2.1v29H281l-20.1-23h-0.2v22.4h-2.1V15z"/>
<path fill="#FFFFFF" d="M303.4,15h9c1.5,0,2.9,0.2,4.2,0.5s2.4,0.9,3.4,1.6s1.7,1.5,2.3,2.5s0.8,2.1,0.8,3.4c0,1.3-0.3,2.4-0.8,3.4
	s-1.2,1.7-2.1,2.4c-0.9,0.6-1.9,1.1-3,1.4c-1.1,0.3-2.3,0.5-3.4,0.5c-0.5,0-1,0-1.5,0c-0.5,0-1.1-0.1-1.6-0.1s-1-0.1-1.4-0.2
	c-0.4-0.1-0.8-0.1-1-0.2v13.1h-4.8V15z M308.2,28.6c0.5,0.1,1.1,0.3,1.7,0.4s1.2,0.2,1.9,0.2c1,0,1.9-0.2,2.7-0.5
	c0.8-0.3,1.4-0.7,1.9-1.3s0.9-1.2,1.1-1.9s0.4-1.5,0.4-2.3c0-0.9-0.2-1.8-0.5-2.6s-0.8-1.4-1.4-2c-0.6-0.5-1.2-1-2-1.3
	c-0.8-0.3-1.6-0.4-2.5-0.4h-3.4V28.6z"/>
<path fill="#FFFFFF" d="M328.4,15h9.8c1.7,0,3.2,0.2,4.5,0.5s2.3,0.9,3.2,1.5c0.9,0.7,1.5,1.4,1.9,2.3c0.4,0.9,0.7,1.9,0.7,3
	c0,0.9-0.2,1.7-0.5,2.5s-0.8,1.5-1.4,2.1c-0.6,0.6-1.3,1.2-2.2,1.6c-0.9,0.5-1.8,0.8-2.8,1l10.3,13.7h-5.5L336.5,30h-3.3v13.3h-4.8
	V15z M333.2,28.5h2.7c1.1,0,2.1-0.1,3-0.4c0.9-0.3,1.7-0.7,2.3-1.2c0.7-0.5,1.2-1.2,1.6-1.9s0.6-1.6,0.6-2.5c0-0.8-0.1-1.6-0.4-2.3
	c-0.3-0.7-0.7-1.3-1.2-1.8c-0.5-0.5-1.2-0.9-1.9-1.2c-0.7-0.3-1.5-0.4-2.4-0.4h-4.2V28.5z"/>
<path fill="#FFFFFF" d="M357.7,15h4.8v28.3h-4.8V15z"/>
<path fill="#FFFFFF" d="M370.8,15h4.9l11,21.7h0.2L397.7,15h4.8v28.3h-4.8V20.1h-0.2l-11.6,23.2h-1l-11.7-23h-0.3v23h-2.1V15z"/>
<path fill="#FFFFFF" d="M421.2,14.3l13.3,29h-4.8l-4.3-9.5h-12.1l-4.5,9.5h-2.4l13.6-29H421.2z M414.1,32h10.4l-5.1-11.2L414.1,32z"
	/>
<path fill="#FFFFFF" d="M439.4,15h9.8c1.7,0,3.2,0.2,4.5,0.5s2.3,0.9,3.2,1.5c0.9,0.7,1.5,1.4,1.9,2.3c0.4,0.9,0.7,1.9,0.7,3
	c0,0.9-0.2,1.7-0.5,2.5s-0.8,1.5-1.4,2.1c-0.6,0.6-1.3,1.2-2.2,1.6c-0.9,0.5-1.8,0.8-2.8,1l10.3,13.7h-5.5L447.5,30h-3.3v13.3h-4.8
	V15z M444.2,28.5h2.7c1.1,0,2.1-0.1,3-0.4c0.9-0.3,1.7-0.7,2.3-1.2c0.7-0.5,1.2-1.2,1.6-1.9s0.6-1.6,0.6-2.5c0-0.8-0.1-1.6-0.4-2.3
	c-0.3-0.7-0.7-1.3-1.2-1.8c-0.5-0.5-1.2-0.9-1.9-1.2c-0.7-0.3-1.5-0.4-2.4-0.4h-4.2V28.5z"/>
<path fill="#FFFFFF" d="M469.1,15l9.8,14.3l9.8-14.3h2.6l-11,16.1v12.2h-4.8V31.5L464.2,15H469.1z"/>
<path fill="#FFFFFF" d="M513.7,29.2c0,2,0.3,3.8,0.9,5.3s1.4,2.9,2.5,4c1,1.1,2.3,1.9,3.7,2.5s3,0.9,4.6,0.9c1,0,1.9-0.2,2.9-0.6
	s1.8-0.9,2.6-1.5c0.8-0.6,1.5-1.3,2.1-2.1c0.6-0.8,1.1-1.6,1.5-2.4l2,1.3c-0.6,0.9-1.3,1.9-2.1,2.7c-0.8,0.9-1.7,1.7-2.8,2.3
	c-1,0.7-2.2,1.2-3.5,1.6c-1.3,0.4-2.8,0.6-4.4,0.6c-1.6,0-3-0.2-4.4-0.5c-1.4-0.4-2.7-0.9-3.8-1.5c-1.2-0.6-2.2-1.4-3.1-2.3
	c-0.9-0.9-1.7-1.9-2.3-3c-0.6-1.1-1.1-2.3-1.5-3.5c-0.3-1.2-0.5-2.5-0.5-3.9c0-1.3,0.2-2.6,0.5-3.9c0.3-1.3,0.8-2.4,1.5-3.5
	c0.6-1.1,1.4-2.1,2.4-3c0.9-0.9,2-1.7,3.2-2.4s2.5-1.2,3.9-1.5s2.9-0.5,4.5-0.5c1.5,0,2.9,0.2,4.2,0.6s2.4,0.9,3.5,1.6
	c1.1,0.7,2,1.4,2.8,2.3s1.5,1.8,2.1,2.7l-2.1,1.4c-1.2-2.3-2.5-4-4-5c-1.5-1.1-3.1-1.6-5-1.6c-1.6,0-3.2,0.3-4.6,0.9
	s-2.7,1.4-3.7,2.6s-1.9,2.5-2.5,4S513.7,27.2,513.7,29.2z"/>
<path fill="#FFFFFF" d="M553.4,14.3l13.3,29h-4.8l-4.3-9.5h-12.1l-4.5,9.5h-2.4l13.6-29H553.4z M546.3,32h10.4l-5.1-11.2L546.3,32z"
	/>
<path fill="#FFFFFF" d="M571.7,15h9.8c1.7,0,3.2,0.2,4.5,0.5s2.3,0.9,3.2,1.5c0.9,0.7,1.5,1.4,1.9,2.3c0.4,0.9,0.7,1.9,0.7,3
	c0,0.9-0.2,1.7-0.5,2.5s-0.8,1.5-1.4,2.1c-0.6,0.6-1.3,1.2-2.2,1.6c-0.9,0.5-1.8,0.8-2.8,1l10.3,13.7h-5.5L579.8,30h-3.3v13.3h-4.8
	V15z M576.4,28.5h2.7c1.1,0,2.1-0.1,3-0.4c0.9-0.3,1.7-0.7,2.3-1.2c0.7-0.5,1.2-1.2,1.6-1.9s0.6-1.6,0.6-2.5c0-0.8-0.1-1.6-0.4-2.3
	c-0.3-0.7-0.7-1.3-1.2-1.8c-0.5-0.5-1.2-0.9-1.9-1.2c-0.7-0.3-1.5-0.4-2.4-0.4h-4.2V28.5z"/>
<path fill="#FFFFFF" d="M619.6,15v1.8h-14.9v10.1h10v1.8h-10v12.7h14.9v1.8h-19.7V15H619.6z"/>
<g>
	<linearGradient id="SVGID_1_" gradientUnits="userSpaceOnUse" x1="20.6296" y1="14.319" x2="21.1295" y2="4.321949e-03">
		<stop  offset="0" style="stop-color:#000000;stop-opacity:0.91"/>
		<stop  offset="0.1845" style="stop-color:#434244;stop-opacity:0.9266"/>
		<stop  offset="0.5832" style="stop-color:#7E7F82;stop-opacity:0.9625"/>
		<stop  offset="1" style="stop-color:#BCBEC0"/>
	</linearGradient>
	<ellipse fill="url(#SVGID_1_)" cx="20.9" cy="7.2" rx="7.1" ry="7.2"/>
	<linearGradient id="SVGID_2_" gradientUnits="userSpaceOnUse" x1="27.79" y1="48.7076" x2="28.889" y2="17.2362">
		<stop  offset="0" style="stop-color:#000000;stop-opacity:0.91"/>
		<stop  offset="0.1845" style="stop-color:#434244;stop-opacity:0.9266"/>
		<stop  offset="0.5832" style="stop-color:#7E7F82;stop-opacity:0.9625"/>
		<stop  offset="1" style="stop-color:#BCBEC0"/>
	</linearGradient>
	<polygon fill="url(#SVGID_2_)" points="19.2,21.2 31.1,17.3 37.4,47.2 31.9,48.8 	"/>
	<linearGradient id="SVGID_3_" gradientUnits="userSpaceOnUse" x1="57.4118" y1="14.319" x2="57.9117" y2="4.380985e-03">
		<stop  offset="0" style="stop-color:#000000;stop-opacity:0.91"/>
		<stop  offset="0.1845" style="stop-color:#434244;stop-opacity:0.9266"/>
		<stop  offset="0.5832" style="stop-color:#7E7F82;stop-opacity:0.9625"/>
		<stop  offset="1" style="stop-color:#BCBEC0"/>
	</linearGradient>
	<ellipse fill="url(#SVGID_3_)" cx="57.7" cy="7.2" rx="7.1" ry="7.2"/>
	<linearGradient id="SVGID_4_" gradientUnits="userSpaceOnUse" x1="49.7319" y1="48.9568" x2="50.8328" y2="17.4305">
		<stop  offset="0" style="stop-color:#000000;stop-opacity:0.91"/>
		<stop  offset="0.1845" style="stop-color:#434244;stop-opacity:0.9266"/>
		<stop  offset="0.5832" style="stop-color:#7E7F82;stop-opacity:0.9625"/>
		<stop  offset="1" style="stop-color:#BCBEC0"/>
	</linearGradient>
	<polygon fill="url(#SVGID_4_)" points="59.4,21.2 47.5,17.3 41.1,47.2 46.7,48.8 	"/>
	<linearGradient id="SVGID_5_" gradientUnits="userSpaceOnUse" x1="3.7021" y1="45.7251" x2="3.971" y2="38.0266">
		<stop  offset="0" style="stop-color:#000000;stop-opacity:0.91"/>
		<stop  offset="0.1845" style="stop-color:#434244;stop-opacity:0.9266"/>
		<stop  offset="0.5832" style="stop-color:#7E7F82;stop-opacity:0.9625"/>
		<stop  offset="1" style="stop-color:#BCBEC0"/>
	</linearGradient>
	<path fill="url(#SVGID_5_)" d="M0.6,43.9c1.1,1.8,3.5,2.4,5.3,1.3c1.8-1.1,2.3-3.5,1.2-5.3c-1.1-1.8-3.5-2.4-5.3-1.3
		C0,39.7-0.5,42.1,0.6,43.9z"/>
	<linearGradient id="SVGID_6_" gradientUnits="userSpaceOnUse" x1="14.7082" y1="58.0416" x2="15.1943" y2="44.1241">
		<stop  offset="0" style="stop-color:#000000;stop-opacity:0.91"/>
		<stop  offset="0.1845" style="stop-color:#434244;stop-opacity:0.9266"/>
		<stop  offset="0.5832" style="stop-color:#7E7F82;stop-opacity:0.9625"/>
		<stop  offset="1" style="stop-color:#BCBEC0"/>
	</linearGradient>
	<polygon fill="url(#SVGID_6_)" points="7,49.2 11.4,44 22.8,55.9 20.7,58.2 	"/>
	<linearGradient id="SVGID_7_" gradientUnits="userSpaceOnUse" x1="74.9328" y1="45.7275" x2="75.2018" y2="38.024">
		<stop  offset="0" style="stop-color:#000000;stop-opacity:0.91"/>
		<stop  offset="0.1845" style="stop-color:#434244;stop-opacity:0.9266"/>
		<stop  offset="0.5832" style="stop-color:#7E7F82;stop-opacity:0.9625"/>
		<stop  offset="1" style="stop-color:#BCBEC0"/>
	</linearGradient>
	<path fill="url(#SVGID_7_)" d="M78.3,43.9c-1.1,1.8-3.5,2.4-5.3,1.3c-1.8-1.1-2.3-3.5-1.2-5.3c1.1-1.8,3.5-2.4,5.3-1.3
		C78.9,39.7,79.4,42.1,78.3,43.9z"/>
	<linearGradient id="SVGID_8_" gradientUnits="userSpaceOnUse" x1="63.7979" y1="58.4445" x2="64.3066" y2="43.8793">
		<stop  offset="0" style="stop-color:#000000;stop-opacity:0.91"/>
		<stop  offset="0.1845" style="stop-color:#434244;stop-opacity:0.9266"/>
		<stop  offset="0.5832" style="stop-color:#7E7F82;stop-opacity:0.9625"/>
		<stop  offset="1" style="stop-color:#BCBEC0"/>
	</linearGradient>
	<polygon fill="url(#SVGID_8_)" points="71.9,49.2 67.5,44 56.1,55.9 58.2,58.2 	"/>
	<linearGradient id="SVGID_9_" gradientUnits="userSpaceOnUse" x1="8.083" y1="31.6408" x2="8.4407" y2="21.3959">
		<stop  offset="0" style="stop-color:#414042;stop-opacity:0.64"/>
		<stop  offset="1.698458e-02" style="stop-color:#484A49;stop-opacity:0.6461"/>
		<stop  offset="9.115726e-02" style="stop-color:#636C5D;stop-opacity:0.6728"/>
		<stop  offset="0.1708" style="stop-color:#738362;stop-opacity:0.7015"/>
		<stop  offset="0.2541" style="stop-color:#7E9661;stop-opacity:0.7315"/>
		<stop  offset="0.342" style="stop-color:#85A65B;stop-opacity:0.7631"/>
		<stop  offset="0.4357" style="stop-color:#89B251;stop-opacity:0.7969"/>
		<stop  offset="0.5374" style="stop-color:#8BBA48;stop-opacity:0.8335"/>
		<stop  offset="0.6512" style="stop-color:#8CC042;stop-opacity:0.8744"/>
		<stop  offset="0.7866" style="stop-color:#8CC43F;stop-opacity:0.9232"/>
		<stop  offset="1" style="stop-color:#8DC63F"/>
	</linearGradient>
	<path fill="url(#SVGID_9_)" d="M3.4,28.1c0.9,2.7,3.8,4.2,6.4,3.3c2.7-0.9,4.1-3.8,3.2-6.5c-0.9-2.7-3.8-4.2-6.4-3.3
		C4,22.5,2.5,25.4,3.4,28.1z"/>
	<linearGradient id="SVGID_10_" gradientUnits="userSpaceOnUse" x1="19.0595" y1="52.4043" x2="19.7926" y2="31.4125">
		<stop  offset="0" style="stop-color:#414042;stop-opacity:0.64"/>
		<stop  offset="1.698458e-02" style="stop-color:#484A49;stop-opacity:0.6461"/>
		<stop  offset="9.115726e-02" style="stop-color:#636C5D;stop-opacity:0.6728"/>
		<stop  offset="0.1708" style="stop-color:#738362;stop-opacity:0.7015"/>
		<stop  offset="0.2541" style="stop-color:#7E9661;stop-opacity:0.7315"/>
		<stop  offset="0.342" style="stop-color:#85A65B;stop-opacity:0.7631"/>
		<stop  offset="0.4357" style="stop-color:#89B251;stop-opacity:0.7969"/>
		<stop  offset="0.5374" style="stop-color:#8BBA48;stop-opacity:0.8335"/>
		<stop  offset="0.6512" style="stop-color:#8CC042;stop-opacity:0.8744"/>
		<stop  offset="0.7866" style="stop-color:#8CC43F;stop-opacity:0.9232"/>
		<stop  offset="1" style="stop-color:#8DC63F"/>
	</linearGradient>
	<polygon fill="url(#SVGID_10_)" points="10.2,36.7 17.5,31.3 28.5,50.3 25.1,52.6 	"/>
	
		<linearGradient id="SVGID_11_" gradientUnits="userSpaceOnUse" x1="44.4526" y1="24.7583" x2="47.5298" y2="19.9614" gradientTransform="matrix(-0.8223 -0.569 -0.569 0.8223 89.1013 22.495)">
		<stop  offset="0" style="stop-color:#414042;stop-opacity:0.64"/>
		<stop  offset="1.698458e-02" style="stop-color:#484A49;stop-opacity:0.6461"/>
		<stop  offset="9.115726e-02" style="stop-color:#636C5D;stop-opacity:0.6728"/>
		<stop  offset="0.1708" style="stop-color:#738362;stop-opacity:0.7015"/>
		<stop  offset="0.2541" style="stop-color:#7E9661;stop-opacity:0.7315"/>
		<stop  offset="0.342" style="stop-color:#85A65B;stop-opacity:0.7631"/>
		<stop  offset="0.4357" style="stop-color:#89B251;stop-opacity:0.7969"/>
		<stop  offset="0.5374" style="stop-color:#8BBA48;stop-opacity:0.8335"/>
		<stop  offset="0.6512" style="stop-color:#8CC042;stop-opacity:0.8744"/>
		<stop  offset="0.7866" style="stop-color:#8CC43F;stop-opacity:0.9232"/>
		<stop  offset="1" style="stop-color:#8DC63F"/>
	</linearGradient>
	<path fill="url(#SVGID_11_)" d="M35.9,13.9c-0.4,1.5,0.4,3.1,1.9,3.5c1.5,0.4,3.1-0.4,3.5-1.9c0.4-1.5-0.4-3.1-1.9-3.5
		C37.9,11.5,36.3,12.4,35.9,13.9z"/>
	
		<linearGradient id="SVGID_12_" gradientUnits="userSpaceOnUse" x1="36.3625" y1="36.5733" x2="42.9695" y2="26.2742" gradientTransform="matrix(-0.8223 -0.569 -0.569 0.8223 89.1013 22.495)">
		<stop  offset="0" style="stop-color:#414042;stop-opacity:0.64"/>
		<stop  offset="1.698458e-02" style="stop-color:#484A49;stop-opacity:0.6461"/>
		<stop  offset="9.115726e-02" style="stop-color:#636C5D;stop-opacity:0.6728"/>
		<stop  offset="0.1708" style="stop-color:#738362;stop-opacity:0.7015"/>
		<stop  offset="0.2541" style="stop-color:#7E9661;stop-opacity:0.7315"/>
		<stop  offset="0.342" style="stop-color:#85A65B;stop-opacity:0.7631"/>
		<stop  offset="0.4357" style="stop-color:#89B251;stop-opacity:0.7969"/>
		<stop  offset="0.5374" style="stop-color:#8BBA48;stop-opacity:0.8335"/>
		<stop  offset="0.6512" style="stop-color:#8CC042;stop-opacity:0.8744"/>
		<stop  offset="0.7866" style="stop-color:#8CC43F;stop-opacity:0.9232"/>
		<stop  offset="1" style="stop-color:#8DC63F"/>
	</linearGradient>
	<polygon fill="url(#SVGID_12_)" points="36.3,19.9 41.3,19.7 40.4,31.9 38.1,31.9 	"/>
	
		<linearGradient id="SVGID_13_" gradientUnits="userSpaceOnUse" x1="2.4359" y1="31.6427" x2="2.078" y2="21.3941" gradientTransform="matrix(-1 0 0 1 73.3014 0)">
		<stop  offset="0" style="stop-color:#414042;stop-opacity:0.64"/>
		<stop  offset="1.698458e-02" style="stop-color:#484A49;stop-opacity:0.6461"/>
		<stop  offset="9.115726e-02" style="stop-color:#636C5D;stop-opacity:0.6728"/>
		<stop  offset="0.1708" style="stop-color:#738362;stop-opacity:0.7015"/>
		<stop  offset="0.2541" style="stop-color:#7E9661;stop-opacity:0.7315"/>
		<stop  offset="0.342" style="stop-color:#85A65B;stop-opacity:0.7631"/>
		<stop  offset="0.4357" style="stop-color:#89B251;stop-opacity:0.7969"/>
		<stop  offset="0.5374" style="stop-color:#8BBA48;stop-opacity:0.8335"/>
		<stop  offset="0.6512" style="stop-color:#8CC042;stop-opacity:0.8744"/>
		<stop  offset="0.7866" style="stop-color:#8CC43F;stop-opacity:0.9232"/>
		<stop  offset="1" style="stop-color:#8DC63F"/>
	</linearGradient>
	<path fill="url(#SVGID_13_)" d="M75.9,28.1c-0.9,2.7-3.8,4.2-6.4,3.3c-2.7-0.9-4.1-3.8-3.2-6.5c0.9-2.7,3.8-4.2,6.4-3.3
		C75.3,22.5,76.8,25.4,75.9,28.1z"/>
	
		<linearGradient id="SVGID_14_" gradientUnits="userSpaceOnUse" x1="13.6931" y1="52.8022" x2="12.9415" y2="31.2803" gradientTransform="matrix(-1 0 0 1 73.3014 0)">
		<stop  offset="0" style="stop-color:#414042;stop-opacity:0.64"/>
		<stop  offset="1.698458e-02" style="stop-color:#484A49;stop-opacity:0.6461"/>
		<stop  offset="9.115726e-02" style="stop-color:#636C5D;stop-opacity:0.6728"/>
		<stop  offset="0.1708" style="stop-color:#738362;stop-opacity:0.7015"/>
		<stop  offset="0.2541" style="stop-color:#7E9661;stop-opacity:0.7315"/>
		<stop  offset="0.342" style="stop-color:#85A65B;stop-opacity:0.7631"/>
		<stop  offset="0.4357" style="stop-color:#89B251;stop-opacity:0.7969"/>
		<stop  offset="0.5374" style="stop-color:#8BBA48;stop-opacity:0.8335"/>
		<stop  offset="0.6512" style="stop-color:#8CC042;stop-opacity:0.8744"/>
		<stop  offset="0.7866" style="stop-color:#8CC43F;stop-opacity:0.9232"/>
		<stop  offset="1" style="stop-color:#8DC63F"/>
	</linearGradient>
	<polygon fill="url(#SVGID_14_)" points="69.1,36.7 61.8,31.3 50.8,50.3 54.2,52.6 	"/>
</g>
</svg>
